<mxfile host="app.diagrams.net" agent="Mozilla/5.0 (Windows NT 10.0; Win64; x64) AppleWebKit/537.36 (KHTML, like Gecko) Chrome/134.0.0.0 Safari/537.36 Edg/134.0.0.0" version="26.1.3">
  <diagram name="第 1 页" id="XAZtQITo-xtTh__EvjFM">
    <mxGraphModel dx="1783" dy="986" grid="1" gridSize="10" guides="1" tooltips="1" connect="1" arrows="1" fold="1" page="1" pageScale="1" pageWidth="1600" pageHeight="900" math="0" shadow="0">
      <root>
        <mxCell id="0" />
        <mxCell id="1" parent="0" />
        <mxCell id="RTbWOXcF7epCuZFrVSqs-9" style="edgeStyle=orthogonalEdgeStyle;rounded=0;orthogonalLoop=1;jettySize=auto;html=1;entryX=0;entryY=0.5;entryDx=0;entryDy=0;" edge="1" parent="1" source="RTbWOXcF7epCuZFrVSqs-1" target="RTbWOXcF7epCuZFrVSqs-7">
          <mxGeometry relative="1" as="geometry" />
        </mxCell>
        <mxCell id="RTbWOXcF7epCuZFrVSqs-1" value="全景立体匹配中的3D卷积计算瓶颈与显存轻量化挑战" style="rounded=1;whiteSpace=wrap;html=1;fillColor=#fff2cc;strokeColor=#d6b656;fontFamily=Times New Roman;fontSize=20;direction=west;" vertex="1" parent="1">
          <mxGeometry x="320" y="160" width="320" height="80" as="geometry" />
        </mxCell>
        <mxCell id="RTbWOXcF7epCuZFrVSqs-11" style="edgeStyle=orthogonalEdgeStyle;rounded=0;orthogonalLoop=1;jettySize=auto;html=1;exitX=0;exitY=0.5;exitDx=0;exitDy=0;entryX=0;entryY=0.5;entryDx=0;entryDy=0;" edge="1" parent="1" source="RTbWOXcF7epCuZFrVSqs-3" target="RTbWOXcF7epCuZFrVSqs-10">
          <mxGeometry relative="1" as="geometry" />
        </mxCell>
        <mxCell id="RTbWOXcF7epCuZFrVSqs-3" value="全景立体匹配中的上下文特征获取与跨视角适配挑战" style="rounded=1;whiteSpace=wrap;html=1;fillColor=#fff2cc;strokeColor=#d6b656;fontFamily=Times New Roman;fontSize=20;direction=west;" vertex="1" parent="1">
          <mxGeometry x="320" y="280" width="320" height="80" as="geometry" />
        </mxCell>
        <mxCell id="RTbWOXcF7epCuZFrVSqs-4" value="本文的研究难点" style="text;html=1;align=center;verticalAlign=middle;resizable=0;points=[];autosize=1;strokeColor=none;fillColor=none;fontSize=25;fontStyle=1" vertex="1" parent="1">
          <mxGeometry x="390" y="80" width="200" height="40" as="geometry" />
        </mxCell>
        <mxCell id="RTbWOXcF7epCuZFrVSqs-12" style="edgeStyle=orthogonalEdgeStyle;rounded=0;orthogonalLoop=1;jettySize=auto;html=1;exitX=0;exitY=0.5;exitDx=0;exitDy=0;" edge="1" parent="1" source="RTbWOXcF7epCuZFrVSqs-5" target="RTbWOXcF7epCuZFrVSqs-10">
          <mxGeometry relative="1" as="geometry" />
        </mxCell>
        <mxCell id="RTbWOXcF7epCuZFrVSqs-5" value="稀疏视角输入条件下全景RGB图像渲染挑战" style="rounded=1;whiteSpace=wrap;html=1;fillColor=#fff2cc;strokeColor=#d6b656;fontFamily=Times New Roman;fontSize=20;direction=west;" vertex="1" parent="1">
          <mxGeometry x="320" y="400" width="320" height="80" as="geometry" />
        </mxCell>
        <mxCell id="RTbWOXcF7epCuZFrVSqs-14" style="edgeStyle=orthogonalEdgeStyle;rounded=0;orthogonalLoop=1;jettySize=auto;html=1;entryX=0;entryY=0.5;entryDx=0;entryDy=0;" edge="1" parent="1" source="RTbWOXcF7epCuZFrVSqs-6" target="RTbWOXcF7epCuZFrVSqs-13">
          <mxGeometry relative="1" as="geometry" />
        </mxCell>
        <mxCell id="RTbWOXcF7epCuZFrVSqs-6" value="全景立体匹配中的真实场景泛化与鲁棒性挑战" style="rounded=1;whiteSpace=wrap;html=1;fillColor=#fff2cc;strokeColor=#d6b656;fontFamily=Times New Roman;fontSize=20;direction=west;" vertex="1" parent="1">
          <mxGeometry x="320" y="520" width="320" height="80" as="geometry" />
        </mxCell>
        <mxCell id="RTbWOXcF7epCuZFrVSqs-22" style="edgeStyle=orthogonalEdgeStyle;rounded=0;orthogonalLoop=1;jettySize=auto;html=1;exitX=1;exitY=0.5;exitDx=0;exitDy=0;entryX=0;entryY=0.5;entryDx=0;entryDy=0;" edge="1" parent="1" source="RTbWOXcF7epCuZFrVSqs-7" target="RTbWOXcF7epCuZFrVSqs-20">
          <mxGeometry relative="1" as="geometry" />
        </mxCell>
        <mxCell id="RTbWOXcF7epCuZFrVSqs-23" style="edgeStyle=orthogonalEdgeStyle;rounded=0;orthogonalLoop=1;jettySize=auto;html=1;entryX=0;entryY=0.5;entryDx=0;entryDy=0;" edge="1" parent="1" source="RTbWOXcF7epCuZFrVSqs-7" target="RTbWOXcF7epCuZFrVSqs-21">
          <mxGeometry relative="1" as="geometry" />
        </mxCell>
        <mxCell id="RTbWOXcF7epCuZFrVSqs-40" style="edgeStyle=orthogonalEdgeStyle;rounded=0;orthogonalLoop=1;jettySize=auto;html=1;exitX=1;exitY=0.5;exitDx=0;exitDy=0;entryX=0;entryY=0.5;entryDx=0;entryDy=0;" edge="1" parent="1" source="RTbWOXcF7epCuZFrVSqs-7" target="RTbWOXcF7epCuZFrVSqs-39">
          <mxGeometry relative="1" as="geometry" />
        </mxCell>
        <mxCell id="RTbWOXcF7epCuZFrVSqs-7" value="基于级联匹配代价体的自适应动态球面扫描算法" style="rounded=1;whiteSpace=wrap;html=1;fillColor=#d5e8d4;strokeColor=#82b366;fontSize=20;fontFamily=Times New Roman;" vertex="1" parent="1">
          <mxGeometry x="760" y="160" width="250" height="80" as="geometry" />
        </mxCell>
        <mxCell id="RTbWOXcF7epCuZFrVSqs-8" value="针对问题的研究内容" style="text;html=1;align=center;verticalAlign=middle;resizable=0;points=[];autosize=1;strokeColor=none;fillColor=none;fontSize=25;fontStyle=1" vertex="1" parent="1">
          <mxGeometry x="770" y="80" width="250" height="40" as="geometry" />
        </mxCell>
        <mxCell id="RTbWOXcF7epCuZFrVSqs-26" style="edgeStyle=orthogonalEdgeStyle;rounded=0;orthogonalLoop=1;jettySize=auto;html=1;exitX=1;exitY=0.5;exitDx=0;exitDy=0;entryX=0;entryY=0.5;entryDx=0;entryDy=0;" edge="1" parent="1" source="RTbWOXcF7epCuZFrVSqs-10" target="RTbWOXcF7epCuZFrVSqs-24">
          <mxGeometry relative="1" as="geometry" />
        </mxCell>
        <mxCell id="RTbWOXcF7epCuZFrVSqs-27" style="edgeStyle=orthogonalEdgeStyle;rounded=0;orthogonalLoop=1;jettySize=auto;html=1;entryX=0;entryY=0.5;entryDx=0;entryDy=0;" edge="1" parent="1" source="RTbWOXcF7epCuZFrVSqs-10" target="RTbWOXcF7epCuZFrVSqs-25">
          <mxGeometry relative="1" as="geometry" />
        </mxCell>
        <mxCell id="RTbWOXcF7epCuZFrVSqs-31" style="edgeStyle=orthogonalEdgeStyle;rounded=0;orthogonalLoop=1;jettySize=auto;html=1;entryX=0;entryY=0.5;entryDx=0;entryDy=0;" edge="1" parent="1" source="RTbWOXcF7epCuZFrVSqs-10" target="RTbWOXcF7epCuZFrVSqs-29">
          <mxGeometry relative="1" as="geometry" />
        </mxCell>
        <mxCell id="RTbWOXcF7epCuZFrVSqs-10" value="基于预训练模型的多尺度迭代式全景深度估计与RGB图像渲染算法" style="rounded=1;whiteSpace=wrap;html=1;fillColor=#d5e8d4;strokeColor=#82b366;fontSize=20;fontFamily=Times New Roman;" vertex="1" parent="1">
          <mxGeometry x="760" y="340" width="250" height="80" as="geometry" />
        </mxCell>
        <mxCell id="RTbWOXcF7epCuZFrVSqs-34" style="edgeStyle=orthogonalEdgeStyle;rounded=0;orthogonalLoop=1;jettySize=auto;html=1;entryX=0;entryY=0.5;entryDx=0;entryDy=0;" edge="1" parent="1" source="RTbWOXcF7epCuZFrVSqs-13" target="RTbWOXcF7epCuZFrVSqs-32">
          <mxGeometry relative="1" as="geometry" />
        </mxCell>
        <mxCell id="RTbWOXcF7epCuZFrVSqs-36" style="edgeStyle=orthogonalEdgeStyle;rounded=0;orthogonalLoop=1;jettySize=auto;html=1;entryX=0;entryY=0.5;entryDx=0;entryDy=0;" edge="1" parent="1" source="RTbWOXcF7epCuZFrVSqs-13" target="RTbWOXcF7epCuZFrVSqs-35">
          <mxGeometry relative="1" as="geometry" />
        </mxCell>
        <mxCell id="RTbWOXcF7epCuZFrVSqs-37" style="edgeStyle=orthogonalEdgeStyle;rounded=0;orthogonalLoop=1;jettySize=auto;html=1;entryX=0;entryY=0.5;entryDx=0;entryDy=0;" edge="1" parent="1" source="RTbWOXcF7epCuZFrVSqs-13" target="RTbWOXcF7epCuZFrVSqs-33">
          <mxGeometry relative="1" as="geometry" />
        </mxCell>
        <mxCell id="RTbWOXcF7epCuZFrVSqs-13" value="基于多目异构实车传感器布局的全景深度估计研究" style="rounded=1;whiteSpace=wrap;html=1;fillColor=#d5e8d4;strokeColor=#82b366;fontSize=20;fontFamily=Times New Roman;" vertex="1" parent="1">
          <mxGeometry x="760" y="520" width="250" height="80" as="geometry" />
        </mxCell>
        <mxCell id="RTbWOXcF7epCuZFrVSqs-15" value="核心创新点概括" style="text;html=1;align=center;verticalAlign=middle;resizable=0;points=[];autosize=1;strokeColor=none;fillColor=none;fontSize=25;fontStyle=1" vertex="1" parent="1">
          <mxGeometry x="1125" y="80" width="200" height="40" as="geometry" />
        </mxCell>
        <mxCell id="RTbWOXcF7epCuZFrVSqs-16" value="第二章" style="text;html=1;align=center;verticalAlign=middle;resizable=0;points=[];autosize=1;strokeColor=none;fillColor=none;fontSize=25;" vertex="1" parent="1">
          <mxGeometry x="835" y="120" width="100" height="40" as="geometry" />
        </mxCell>
        <mxCell id="RTbWOXcF7epCuZFrVSqs-17" value="第三章" style="text;html=1;align=center;verticalAlign=middle;resizable=0;points=[];autosize=1;strokeColor=none;fillColor=none;fontSize=25;" vertex="1" parent="1">
          <mxGeometry x="835" y="300" width="100" height="40" as="geometry" />
        </mxCell>
        <mxCell id="RTbWOXcF7epCuZFrVSqs-18" value="第四章" style="text;html=1;align=center;verticalAlign=middle;resizable=0;points=[];autosize=1;strokeColor=none;fillColor=none;fontSize=25;" vertex="1" parent="1">
          <mxGeometry x="835" y="480" width="100" height="40" as="geometry" />
        </mxCell>
        <mxCell id="RTbWOXcF7epCuZFrVSqs-20" value="级联匹配代价体" style="rounded=1;whiteSpace=wrap;html=1;fillColor=#dae8fc;strokeColor=#6c8ebf;fontSize=20;fontFamily=Times New Roman;" vertex="1" parent="1">
          <mxGeometry x="1120" y="125" width="280" height="40" as="geometry" />
        </mxCell>
        <mxCell id="RTbWOXcF7epCuZFrVSqs-21" value="自适应动态球面扫描" style="rounded=1;whiteSpace=wrap;html=1;fillColor=#dae8fc;strokeColor=#6c8ebf;fontSize=20;fontFamily=Times New Roman;" vertex="1" parent="1">
          <mxGeometry x="1120" y="235" width="280" height="40" as="geometry" />
        </mxCell>
        <mxCell id="RTbWOXcF7epCuZFrVSqs-24" value="基于预训练模型的全景上下文特征生成" style="rounded=1;whiteSpace=wrap;html=1;fillColor=#dae8fc;strokeColor=#6c8ebf;fontSize=20;fontFamily=Times New Roman;" vertex="1" parent="1">
          <mxGeometry x="1120" y="290" width="280" height="80" as="geometry" />
        </mxCell>
        <mxCell id="RTbWOXcF7epCuZFrVSqs-25" value="多尺度全景深度迭代更新机制" style="rounded=1;whiteSpace=wrap;html=1;fillColor=#dae8fc;strokeColor=#6c8ebf;fontSize=20;fontFamily=Times New Roman;" vertex="1" parent="1">
          <mxGeometry x="1120" y="370" width="280" height="50" as="geometry" />
        </mxCell>
        <mxCell id="RTbWOXcF7epCuZFrVSqs-29" value="无需3D卷积的高校全景RGB图像渲染" style="rounded=1;whiteSpace=wrap;html=1;fillColor=#dae8fc;strokeColor=#6c8ebf;fontSize=20;fontFamily=Times New Roman;" vertex="1" parent="1">
          <mxGeometry x="1120" y="420" width="280" height="50" as="geometry" />
        </mxCell>
        <mxCell id="RTbWOXcF7epCuZFrVSqs-32" value="光轴偏移数据增强" style="rounded=1;whiteSpace=wrap;html=1;fillColor=#dae8fc;strokeColor=#6c8ebf;fontSize=20;fontFamily=Times New Roman;" vertex="1" parent="1">
          <mxGeometry x="1120" y="500" width="280" height="40" as="geometry" />
        </mxCell>
        <mxCell id="RTbWOXcF7epCuZFrVSqs-33" value="共视区域增强模块" style="rounded=1;whiteSpace=wrap;html=1;fillColor=#dae8fc;strokeColor=#6c8ebf;fontSize=20;fontFamily=Times New Roman;" vertex="1" parent="1">
          <mxGeometry x="1120" y="600" width="280" height="40" as="geometry" />
        </mxCell>
        <mxCell id="RTbWOXcF7epCuZFrVSqs-35" value="基于Carla的实车布局多目异构仿真数据采集方法" style="rounded=1;whiteSpace=wrap;html=1;fillColor=#dae8fc;strokeColor=#6c8ebf;fontSize=20;fontFamily=Times New Roman;" vertex="1" parent="1">
          <mxGeometry x="1120" y="540" width="280" height="60" as="geometry" />
        </mxCell>
        <mxCell id="RTbWOXcF7epCuZFrVSqs-39" value="“由粗到细”多阶段全景立体匹配算法" style="rounded=1;whiteSpace=wrap;html=1;fillColor=#dae8fc;strokeColor=#6c8ebf;fontSize=20;fontFamily=Times New Roman;" vertex="1" parent="1">
          <mxGeometry x="1120" y="165" width="280" height="70" as="geometry" />
        </mxCell>
      </root>
    </mxGraphModel>
  </diagram>
</mxfile>
